<?xml version="1.0" encoding="UTF-8" standalone="no"?>
<svg
     xmlns:dc="http://purl.org/dc/elements/1.1/"
     xmlns:cc="http://creativecommons.org/ns#"
     xmlns:rdf="http://www.w3.org/1999/02/22-rdf-syntax-ns#"
     xmlns:svg="http://www.w3.org/2000/svg"
     xmlns="http://www.w3.org/2000/svg"
     xmlns:sodipodi="http://sodipodi.sourceforge.net/DTD/sodipodi-0.dtd"
     xmlns:inkscape="http://www.inkscape.org/namespaces/inkscape"
     height="512"
     viewBox="0 0 58 58"
     width="512"
     version="1.1"
     id="svg31"
     sodipodi:docname="language.svg"
     inkscape:version="1.0.1 (1.0.1+r73)">
    <metadata
         id="metadata37">
        <rdf:RDF>
            <cc:Work
                 rdf:about="">
                <dc:format>image/svg+xml</dc:format>
                <dc:type
                     rdf:resource="http://purl.org/dc/dcmitype/StillImage" />
                <dc:title></dc:title>
            </cc:Work>
        </rdf:RDF>
    </metadata>
    <defs
         id="defs35" />
    <sodipodi:namedview
         pagecolor="#ffffff"
         bordercolor="#666666"
         borderopacity="1"
         objecttolerance="10"
         gridtolerance="10"
         guidetolerance="10"
         inkscape:pageopacity="0"
         inkscape:pageshadow="2"
         inkscape:window-width="1920"
         inkscape:window-height="1016"
         id="namedview33"
         showgrid="false"
         inkscape:zoom="1.3984"
         inkscape:cx="254.57"
         inkscape:cy="256"
         inkscape:window-x="0"
         inkscape:window-y="27"
         inkscape:window-maximized="1"
         inkscape:current-layer="038---Global-Language" />
    <g
         id="038---Global-Language"
         fill="none">
        <g
             id="g866"
             transform="matrix(1.16,0,0,1.16,-4.64,-4.64)">
            <circle
                 id="Oval"
                 cx="29"
                 cy="29"
                 fill="#3b97d3"
                 r="25" />
            <path
                 id="Shape"
                 d="M 53.25,35.06 C 50.58,45.796 41.171,53.5 30.12,54 V 52.5 C 30.125,51.574 29.761,50.683 29.108,50.026 C 28.455,49.369 27.566,49 26.64,49 H 25.48 C 24.052,49.013 22.76,48.157 22.215,46.837 C 21.669,45.518 21.98,43.999 23,43 C 23.654,42.352 24.539,41.992 25.46,42 H 31.26 C 32.329,42.013 33.343,41.524 34,40.68 L 36.43,35.52 C 36.972,35.179 37.6,34.999 38.24,35 C 54.56,35 52.89,35 53.25,35.06 Z"
                 fill="#4fba6f" />
            <path
                 id="path4"
                 d="M 53.91,27 H 41.76 C 40.834,27 39.945,26.631 39.292,25.974 C 38.639,25.317 38.275,24.426 38.28,23.5 C 38.28,21.575 36.725,20.011 34.8,20 H 33.64 C 31.707,20 30.14,18.433 30.14,16.5 C 30.14,14.567 31.707,13 33.64,13 H 39.44 C 40.366,13 41.255,12.631 41.908,11.974 C 42.561,11.317 42.925,10.426 42.92,9.5 C 42.92,9.1122 42.985,8.727 43.11,8.36 C 49.347,12.617 53.319,19.472 53.91,27 Z"
                 fill="#4fba6f" />
            <path
                 id="path6"
                 d="M 27.84,33.5 C 27.845,34.426 27.481,35.317 26.828,35.974 C 26.175,36.631 25.286,37 24.36,37 H 5.36 C 2.6211,28.887 4.2247,19.937 9.61,13.28 L 21,14 L 23,21 C 20.68,23.35 21.63,23 15.08,23 C 13.147,23 11.58,24.567 11.58,26.5 C 11.58,28.433 13.147,30 15.08,30 H 24.36 C 25.286,30 26.175,30.369 26.828,31.026 C 27.481,31.683 27.845,32.574 27.84,33.5 Z"
                 fill="#4fba6f" />
        </g>
    </g>
</svg>
